<svg width="227" height="83" viewBox="0 0 227 83" fill="none" xmlns="http://www.w3.org/2000/svg">
<path d="M0 7.13419L227 6.78906" stroke="white" stroke-width="0.344985"/>
<rect x="1.61548" y="56.2827" width="8.20523" height="20.1392" rx="0.800415" transform="rotate(-90 1.61548 56.2827)" fill="white"/>
<rect x="11.3645" y="35.396" width="8.20523" height="20.1392" rx="0.800415" transform="rotate(-90 11.3645 35.396)" fill="white"/>
<path fill-rule="evenodd" clip-rule="evenodd" d="M9.81899 27.1909V28.0863C9.81899 33.8946 9.81979 39.7033 9.81839 45.5116C9.81819 46.5811 9.8144 46.5824 8.75275 46.583C6.8388 46.584 4.92504 46.5881 3.01128 46.581C1.966 46.5771 1.62117 46.2284 1.61917 45.1694C1.61358 42.2653 1.6072 39.3607 1.63134 36.4568C1.63394 36.1361 1.74589 35.7344 1.95243 35.5097C4.42574 32.8179 6.9258 30.1521 9.42147 27.4821C9.49011 27.4083 9.58491 27.3605 9.81899 27.1909Z" fill="white"/>
<path fill-rule="evenodd" clip-rule="evenodd" d="M23.2995 56.2827V55.3873C23.2995 49.5791 23.2987 43.7704 23.3001 37.9621C23.3003 36.8925 23.3041 36.8913 24.3658 36.8906C26.2797 36.8896 28.1935 36.8855 30.1072 36.8927C31.1525 36.8966 31.4974 37.2452 31.4994 38.3042C31.5049 41.2084 31.5113 44.1129 31.4872 47.0168C31.4846 47.3376 31.3726 47.7392 31.1661 47.964C28.6928 50.6558 26.1927 53.3215 23.6971 55.9915C23.6284 56.0653 23.5336 56.1132 23.2995 56.2827Z" fill="white"/>
<path d="M48.4093 56.1909V30.8412C48.4093 29.278 48.6839 28.264 49.2332 27.7993C49.7824 27.2923 50.8598 27.0388 52.4652 27.0388H83.2651V33.4396H60.894V38.1926H81.1738V44.5934H60.894V49.7901H83.2651V56.1909H48.4093ZM87.8884 56.1909C87.8884 52.135 87.8673 48.1001 87.8251 44.0864C87.8251 40.0727 87.8251 36.0379 87.8251 31.982C87.8251 30.292 88.0997 29.0456 88.6489 28.2429C89.1982 27.4402 90.4234 27.0388 92.3246 27.0388C94.6906 27.0388 97.0988 27.0388 99.5493 27.0388C102.042 27.0388 104.514 27.0388 106.964 27.0388C109.415 27.0388 111.823 27.0388 114.189 27.0388C116.174 27.081 117.97 27.3768 119.576 27.926C121.223 28.4753 122.533 29.447 123.505 30.8412C124.519 32.2355 125.026 34.1789 125.026 36.6717C125.026 39.3756 124.582 41.5304 123.695 43.1358C122.85 44.6991 121.667 45.8187 120.146 46.4947C118.667 47.1707 116.914 47.5087 114.886 47.5087C112.224 47.4664 109.457 47.4453 106.584 47.4453C103.711 47.4453 100.944 47.4242 98.2818 47.3819C98.2818 45.5229 98.2818 44.1709 98.2818 43.326C98.2818 42.4387 98.3874 41.8683 98.5987 41.6149C98.8522 41.3614 99.2747 41.2346 99.8662 41.2346C100.838 41.2346 101.852 41.2346 102.908 41.2346C104.007 41.2346 105.105 41.2346 106.204 41.2346C107.344 41.2346 108.443 41.2346 109.499 41.2346C110.133 41.2346 110.661 41.0867 111.083 40.791C111.506 40.4952 111.823 40.0305 112.034 39.3968C112.288 38.763 112.414 37.9814 112.414 37.0519C112.414 35.8267 112.203 34.9394 111.781 34.3902C111.4 33.7987 110.724 33.503 109.753 33.503C108.739 33.4607 107.767 33.4396 106.837 33.4396C105.95 33.4396 105.063 33.4396 104.176 33.4396C103.288 33.4396 102.38 33.4396 101.451 33.4396C101.155 33.4396 100.88 33.5663 100.627 33.8198C100.415 34.0311 100.31 34.2423 100.31 34.4536C100.31 38.087 100.31 41.7205 100.31 45.3539C100.31 48.9451 100.31 52.5575 100.31 56.1909H87.8884ZM129.731 56.1909C129.731 51.966 129.731 47.741 129.731 43.5161C129.731 39.2489 129.731 35.0028 129.731 30.7779C129.731 29.9751 129.795 29.2991 129.921 28.7499C130.048 28.1584 130.386 27.7359 130.935 27.4824C131.527 27.1867 132.477 27.0388 133.787 27.0388H142.216V56.1909H129.731ZM148.422 56.1909V31.5384C148.422 30.3976 148.464 29.5104 148.548 28.8766C148.675 28.2006 149.013 27.7359 149.562 27.4824C150.154 27.1867 151.126 27.0388 152.478 27.0388H183.341V33.4396H160.97V38.1926H181.25V44.5934H160.97V56.1909H148.422ZM198.935 56.1909V44.6568L185.817 28.6231L184.486 27.0388H201.851L208.442 36.4182L214.399 27.0388H225.679L223.905 28.8766L211.357 44.6568L211.42 51.8181C211.462 53.0856 211.314 54.0362 210.976 54.6699C210.638 55.2614 210.068 55.6628 209.265 55.874C208.505 56.0853 207.406 56.1909 205.97 56.1909H198.935Z" fill="white"/>
<line y1="76.3397" x2="63.718" y2="76.3397" stroke="white" stroke-width="0.344985"/>
<path d="M101.175 73.6635V81.082H99.6869V76.2568L97.6994 81.082H96.5728L94.5747 76.2568V81.082H93.0867V73.6635H94.7766L97.1361 79.1796L99.4956 73.6635H101.175ZM105.261 81.1777C104.694 81.1777 104.184 81.0537 103.73 80.8057C103.277 80.5506 102.919 80.1928 102.657 79.7322C102.402 79.2717 102.274 78.7403 102.274 78.138C102.274 77.5357 102.405 77.0043 102.667 76.5437C102.937 76.0832 103.301 75.7289 103.762 75.4809C104.223 75.2258 104.736 75.0983 105.303 75.0983C105.87 75.0983 106.384 75.2258 106.844 75.4809C107.305 75.7289 107.666 76.0832 107.928 76.5437C108.198 77.0043 108.332 77.5357 108.332 78.138C108.332 78.7403 108.194 79.2717 107.918 79.7322C107.648 80.1928 107.28 80.5506 106.812 80.8057C106.352 81.0537 105.834 81.1777 105.261 81.1777ZM105.261 79.881C105.53 79.881 105.781 79.8173 106.015 79.6897C106.256 79.5551 106.447 79.3567 106.589 79.0945C106.731 78.8324 106.802 78.5135 106.802 78.138C106.802 77.5782 106.653 77.1496 106.355 76.852C106.065 76.5473 105.707 76.3949 105.282 76.3949C104.857 76.3949 104.499 76.5473 104.208 76.852C103.925 77.1496 103.783 77.5782 103.783 78.138C103.783 78.6977 103.921 79.13 104.198 79.4346C104.481 79.7322 104.835 79.881 105.261 79.881ZM109.041 78.1167C109.041 77.5215 109.158 76.9937 109.392 76.5331C109.633 76.0726 109.959 75.7183 110.37 75.4703C110.78 75.2223 111.238 75.0983 111.741 75.0983C112.123 75.0983 112.488 75.1833 112.835 75.3534C113.182 75.5163 113.459 75.736 113.664 76.0123V73.2171H115.174V81.082H113.664V80.2105C113.48 80.501 113.221 80.7348 112.888 80.912C112.555 81.0891 112.169 81.1777 111.73 81.1777C111.234 81.1777 110.78 81.0501 110.37 80.7951C109.959 80.54 109.633 80.1822 109.392 79.7216C109.158 79.254 109.041 78.719 109.041 78.1167ZM113.675 78.138C113.675 77.7766 113.604 77.4684 113.462 77.2133C113.321 76.9512 113.129 76.7528 112.888 76.6181C112.648 76.4764 112.389 76.4056 112.113 76.4056C111.836 76.4056 111.581 76.4729 111.347 76.6075C111.114 76.7421 110.922 76.9405 110.773 77.2027C110.632 77.4578 110.561 77.7625 110.561 78.1167C110.561 78.471 110.632 78.7828 110.773 79.052C110.922 79.3142 111.114 79.5161 111.347 79.6578C111.588 79.7995 111.843 79.8704 112.113 79.8704C112.389 79.8704 112.648 79.8031 112.888 79.6685C113.129 79.5268 113.321 79.3284 113.462 79.0733C113.604 78.8111 113.675 78.4994 113.675 78.138ZM122.1 78.0105C122.1 78.223 122.086 78.4143 122.058 78.5844H117.753C117.789 79.0095 117.938 79.3425 118.2 79.5834C118.462 79.8243 118.784 79.9448 119.167 79.9448C119.72 79.9448 120.113 79.7074 120.347 79.2327H121.952C121.782 79.7995 121.456 80.2672 120.974 80.6356C120.492 80.997 119.9 81.1777 119.199 81.1777C118.632 81.1777 118.122 81.0537 117.668 80.8057C117.222 80.5506 116.871 80.1928 116.616 79.7322C116.368 79.2717 116.244 78.7403 116.244 78.138C116.244 77.5286 116.368 76.9937 116.616 76.5331C116.864 76.0726 117.211 75.7183 117.658 75.4703C118.104 75.2223 118.618 75.0983 119.199 75.0983C119.759 75.0983 120.258 75.2187 120.697 75.4597C121.144 75.7006 121.487 76.0442 121.728 76.4906C121.976 76.9299 122.1 77.4365 122.1 78.0105ZM120.559 77.5853C120.552 77.2027 120.414 76.898 120.145 76.6713C119.876 76.4375 119.546 76.3206 119.156 76.3206C118.788 76.3206 118.476 76.4339 118.221 76.6607C117.973 76.8803 117.821 77.1885 117.764 77.5853H120.559ZM124.674 76.108C124.866 75.7962 125.114 75.5518 125.418 75.3746C125.73 75.1975 126.084 75.1089 126.481 75.1089V76.6713H126.088C125.62 76.6713 125.266 76.7811 125.025 77.0008C124.791 77.2204 124.674 77.603 124.674 78.1486V81.082H123.186V75.1939H124.674V76.108ZM130.746 75.1089C131.448 75.1089 132.015 75.3321 132.447 75.7785C132.879 76.2178 133.095 76.8343 133.095 77.6278V81.082H131.607V77.8298C131.607 77.3621 131.49 77.0043 131.256 76.7563C131.023 76.5012 130.704 76.3737 130.3 76.3737C129.889 76.3737 129.563 76.5012 129.322 76.7563C129.088 77.0043 128.971 77.3621 128.971 77.8298V81.082H127.483V75.1939H128.971V75.9273C129.17 75.6722 129.421 75.4738 129.726 75.3321C130.038 75.1833 130.378 75.1089 130.746 75.1089ZM135.265 74.4925C135.003 74.4925 134.783 74.411 134.606 74.248C134.436 74.078 134.351 73.869 134.351 73.621C134.351 73.373 134.436 73.1675 134.606 73.0045C134.783 72.8345 135.003 72.7494 135.265 72.7494C135.527 72.7494 135.743 72.8345 135.913 73.0045C136.09 73.1675 136.179 73.373 136.179 73.621C136.179 73.869 136.09 74.078 135.913 74.248C135.743 74.411 135.527 74.4925 135.265 74.4925ZM135.998 75.1939V81.082H134.51V75.1939H135.998ZM138.829 79.8598H141.454V81.082H137.139V79.881L139.711 76.4162H137.149V75.1939H141.422V76.3949L138.829 79.8598ZM148.08 78.0105C148.08 78.223 148.065 78.4143 148.037 78.5844H143.733C143.768 79.0095 143.917 79.3425 144.179 79.5834C144.441 79.8243 144.763 79.9448 145.146 79.9448C145.699 79.9448 146.092 79.7074 146.326 79.2327H147.931C147.761 79.7995 147.435 80.2672 146.953 80.6356C146.471 80.997 145.879 81.1777 145.178 81.1777C144.611 81.1777 144.101 81.0537 143.648 80.8057C143.201 80.5506 142.85 80.1928 142.595 79.7322C142.347 79.2717 142.223 78.7403 142.223 78.138C142.223 77.5286 142.347 76.9937 142.595 76.5331C142.843 76.0726 143.19 75.7183 143.637 75.4703C144.083 75.2223 144.597 75.0983 145.178 75.0983C145.738 75.0983 146.237 75.2187 146.677 75.4597C147.123 75.7006 147.467 76.0442 147.708 76.4906C147.956 76.9299 148.08 77.4365 148.08 78.0105ZM146.538 77.5853C146.531 77.2027 146.393 76.898 146.124 76.6713C145.855 76.4375 145.525 76.3206 145.135 76.3206C144.767 76.3206 144.455 76.4339 144.2 76.6607C143.952 76.8803 143.8 77.1885 143.743 77.5853H146.538Z" fill="white"/>
<path d="M84.8567 80.1427V73.9982L82.9928 71.813L81.0946 73.9982V80.1427H84.8567Z" fill="white"/>
<path d="M86.5144 75.8208L88.3955 77.9186V80.0164H86.5144V75.8208Z" fill="white"/>
<path d="M79.3984 75.8179L77.5174 77.9157V80.0135H79.3984V75.8179Z" fill="white"/>
<line x1="163.282" y1="76.3397" x2="227" y2="76.3397" stroke="white" stroke-width="0.344985"/>
</svg>
